<svg width="78" height="97" viewBox="0 0 78 97" fill="none" xmlns="http://www.w3.org/2000/svg">
<g clip-path="url(#clip0_6_5538)">
<path d="M38.7997 0C38.7997 0 19.4142 19.4 0.0263464 19.4C0.0263464 19.4 -2.39623 75.175 39.2192 97C79.9956 75.175 77.573 19.4 77.573 19.4C77.5706 19.4 77.5706 19.4 77.5681 19.4C55.7625 19.4 38.7997 0 38.7997 0Z" fill="#0B0C0E"/>
<path d="M67.5943 28.0402C55.1468 25.4164 44.906 18.4469 38.5452 13.1119C31.9977 18.299 21.6551 25.1521 10.0078 27.8947C11.1282 41.9064 16.2667 70.6693 39.1636 85.7261C61.4445 70.713 66.4885 42.1149 67.5943 28.0402Z" fill="#FF4C00"/>
<path d="M38.5452 13.1095C31.9977 18.2966 21.6551 25.1496 10.0078 27.8923C10.1727 29.9463 10.4395 32.3422 10.8178 34.9393C22.128 32.0754 32.1481 25.4479 38.5428 20.3845C44.7629 25.6031 54.7151 32.3591 66.794 35.1067C67.1675 32.5071 67.4294 30.1039 67.5919 28.0378C55.1468 25.4139 44.906 18.4445 38.5452 13.1095Z" fill="#DD4100"/>
<path d="M38.7998 4.84998C37.4605 4.84998 36.3748 5.9357 36.3748 7.27498C36.3748 8.61425 37.4605 9.69998 38.7998 9.69998C40.1391 9.69998 41.2248 8.61425 41.2248 7.27498C41.2248 5.9357 40.1391 4.84998 38.7998 4.84998ZM72.7498 21.825C71.4105 21.825 70.3248 22.9107 70.3248 24.25C70.3248 25.5893 71.4105 26.675 72.7498 26.675C74.0891 26.675 75.1748 25.5893 75.1748 24.25C75.1748 22.9107 74.0891 21.825 72.7498 21.825ZM38.7998 87.3C37.4605 87.3 36.3748 88.3857 36.3748 89.725C36.3748 91.0643 37.4605 92.15 38.7998 92.15C40.1391 92.15 41.2248 91.0643 41.2248 89.725C41.2248 88.3857 40.1391 87.3 38.7998 87.3ZM4.8498 21.825C3.51053 21.825 2.4248 22.9107 2.4248 24.25C2.4248 25.5893 3.51053 26.675 4.8498 26.675C6.18908 26.675 7.2748 25.5893 7.2748 24.25C7.2748 22.9107 6.18908 21.825 4.8498 21.825ZM12.1248 58.2C10.7855 58.2 9.6998 59.2857 9.6998 60.625C9.6998 61.9643 10.7855 63.05 12.1248 63.05C13.4641 63.05 14.5498 61.9643 14.5498 60.625C14.5498 59.2857 13.4641 58.2 12.1248 58.2ZM65.4748 58.2C64.1355 58.2 63.0498 59.2857 63.0498 60.625C63.0498 61.9643 64.1355 63.05 65.4748 63.05C66.8141 63.05 67.8998 61.9643 67.8998 60.625C67.8998 59.2857 66.8141 58.2 65.4748 58.2Z" fill="#FF4C00"/>
<path d="M42.1785 66.1166L38.0785 69.8749L33.9785 66.1166V52.1083H42.1785V57.2562L40.4702 58.2583V59.2833L42.1785 60.3083V61.3333L40.4702 62.3583V63.3833L42.1785 64.4083V66.1166Z" fill="#0B0C0E"/>
<path d="M37.3955 69.2487L36.0288 67.9958V53.8167H37.3955V69.2487Z" fill="#FF4C00" fill-opacity="0.76078"/>
<path d="M27.8286 43C27.8286 48.523 32.3056 53 37.8286 53C43.3516 53 47.8286 48.523 47.8286 43C47.8286 37.477 43.3516 33 37.8286 33C32.3056 33 27.8286 37.477 27.8286 43Z" fill="#0B0C0E"/>
<path d="M37.4772 35C36.4754 35 35.5993 35.2143 34.8476 35.5464C34.7245 35.5852 34.6341 35.6951 34.6158 35.825C34.5975 35.9562 34.6551 36.0861 34.7625 36.1598C34.8698 36.2321 35.0087 36.2361 35.12 36.1678C35.7918 35.8705 36.5658 35.6857 37.4772 35.6857C38.8183 35.6857 39.9196 35.9991 40.8403 36.4892C41.0053 36.5776 41.2096 36.5133 41.296 36.3446C41.3824 36.1758 41.3196 35.9669 41.1546 35.8785C40.1423 35.3402 38.9204 35 37.4772 35ZM33.8418 36.1357C33.7881 36.145 33.7384 36.1665 33.6951 36.1999C32.7549 36.8709 32.0647 37.7119 31.5579 38.4177C31.3051 38.7713 31.0995 39.09 30.9293 39.3391C30.7591 39.5882 30.6163 39.777 30.5731 39.8105C30.4605 39.8775 30.395 40.006 30.4081 40.1386C30.4199 40.2725 30.5063 40.3864 30.6294 40.4305C30.7525 40.4747 30.89 40.4426 30.9817 40.3462C31.1703 40.1962 31.2973 39.994 31.4741 39.7355C31.6509 39.477 31.8604 39.1636 32.1027 38.8248C32.5872 38.1485 33.2211 37.3758 34.0723 36.7678C34.202 36.6847 34.2596 36.5214 34.2124 36.3727C34.1653 36.2241 34.0265 36.1263 33.8733 36.1357C33.8628 36.1357 33.8523 36.1357 33.8418 36.1357ZM37.6972 36.7142C37.5126 36.741 37.3829 36.9164 37.4091 37.1053C37.4353 37.2941 37.6069 37.4267 37.7915 37.3999C41.1991 37.6035 42.6396 39.5426 43.2499 41.739C43.8602 43.9353 43.5393 46.4062 43.2499 47.3209C43.1923 47.5017 43.2879 47.6958 43.4647 47.7548C43.6415 47.8137 43.8314 47.7159 43.889 47.5351C44.2373 46.4356 44.5608 43.938 43.8995 41.5568C43.2381 39.1757 41.4872 36.9325 37.8335 36.7142C37.8086 36.7115 37.785 36.7115 37.7601 36.7142C37.7496 36.7142 37.7392 36.7142 37.7287 36.7142C37.7182 36.7142 37.7077 36.7142 37.6972 36.7142ZM42.2441 36.7356C42.1106 36.7611 42.0045 36.8669 41.977 37.0035C41.9495 37.1401 42.0058 37.2794 42.1184 37.357C44.7402 39.2078 45.1567 43.3996 45.1567 43.3996C45.1737 43.5884 45.3387 43.7277 45.5234 43.7103C45.708 43.6929 45.8442 43.5242 45.8272 43.3353C45.8272 43.3353 45.4684 38.8998 42.4956 36.7999C42.4236 36.745 42.3332 36.7222 42.2441 36.7356ZM36.4086 36.8428C36.4021 36.8454 36.3942 36.8495 36.3877 36.8535C34.071 37.3236 32.95 38.9547 32.0817 40.3355C31.9809 40.4948 32.0254 40.7091 32.1813 40.8122C32.3371 40.9154 32.5466 40.8698 32.6475 40.7105C33.5053 39.3444 34.4429 37.9383 36.5134 37.5177C36.6823 37.4749 36.7923 37.3075 36.7648 37.1307C36.7373 36.9553 36.5828 36.8294 36.4086 36.8428ZM37.8125 38.4284C36.647 38.4284 35.7564 38.8101 35.0676 39.3819C34.9222 39.4998 34.9 39.7167 35.0152 39.8641C35.1305 40.0127 35.3426 40.0355 35.4867 39.9176C36.0734 39.4315 36.7871 39.1141 37.8125 39.1141C38.1085 39.1141 38.3913 39.1395 38.6611 39.1891C38.7816 39.2159 38.906 39.173 38.9859 39.0779C39.0671 38.9815 39.0893 38.8489 39.0461 38.7324C39.0016 38.6146 38.8981 38.5302 38.7763 38.5141C38.4673 38.4579 38.1464 38.4284 37.8125 38.4284ZM39.9078 38.9212C39.8974 38.9239 39.8869 38.9279 39.8764 38.932C39.7376 38.9641 39.6328 39.082 39.6171 39.2266C39.6001 39.3712 39.6747 39.5105 39.8031 39.5748C41.2711 40.3408 42.1708 42.0095 42.1708 44.2567C42.1708 44.9236 42.0909 45.6308 41.9717 46.3031C41.9364 46.4892 42.0569 46.6687 42.2389 46.7048C42.4209 46.741 42.5964 46.6178 42.6318 46.4316C42.7562 45.7312 42.8413 44.9812 42.8413 44.2567C42.8413 41.8193 41.829 39.8627 40.1069 38.9641C40.0467 38.9293 39.9772 38.9146 39.9078 38.9212ZM37.8125 40.1426C36.939 40.1426 36.2606 40.4292 35.7486 40.8712C35.2365 41.3131 34.8869 41.8916 34.5752 42.4889C34.4888 42.6577 34.5516 42.8666 34.7166 42.955C34.8816 43.0434 35.0859 42.9791 35.1724 42.8104C35.4683 42.2412 35.7748 41.7443 36.1781 41.3961C36.5815 41.0479 37.0739 40.8283 37.8125 40.8283C38.5092 40.8283 39.0173 41.052 39.4154 41.4068C39.8135 41.7617 40.099 42.2586 40.2745 42.8104C40.3046 42.9336 40.3989 43.0313 40.5194 43.0608C40.6412 43.0916 40.7682 43.0514 40.8507 42.9563C40.9332 42.8599 40.9581 42.726 40.9136 42.6068C40.7093 41.9653 40.3688 41.3506 39.8555 40.8926C39.3421 40.4346 38.6546 40.1426 37.8125 40.1426ZM34.2818 40.3355C34.1915 40.3529 34.1116 40.4064 34.0618 40.4855C33.3926 41.4109 32.9094 42.438 32.3541 43.1746C31.7989 43.9112 31.2488 44.3491 30.2693 44.2567C30.0846 44.2393 29.9196 44.3786 29.9026 44.5674C29.8856 44.7562 30.0218 44.925 30.2064 44.9424C31.4217 45.0562 32.2664 44.4188 32.8884 43.5925C33.5105 42.7662 33.9806 41.7443 34.5961 40.8926C34.676 40.7908 34.6917 40.6529 34.6394 40.535C34.5857 40.4172 34.4717 40.3395 34.3447 40.3355C34.3342 40.3355 34.3237 40.3355 34.3133 40.3355C34.3028 40.3355 34.2923 40.3355 34.2818 40.3355ZM31.6208 41.2997C31.6024 41.3024 31.5854 41.3051 31.5684 41.3104C31.4833 41.3278 31.4086 41.3774 31.3588 41.4497C30.966 41.9974 30.5757 42.3939 30.0912 42.5639C29.9654 42.5921 29.8659 42.6925 29.8371 42.8224C29.8083 42.951 29.8541 43.0849 29.955 43.1666C30.0571 43.2496 30.1946 43.2644 30.3112 43.2068C30.9882 42.9684 31.4754 42.4528 31.9036 41.8568C31.9874 41.751 32.0018 41.6051 31.9403 41.4845C31.8788 41.3627 31.753 41.2903 31.6208 41.2997ZM37.2467 41.6425C37.2062 41.6492 37.1669 41.664 37.1315 41.6854C36.5474 42.0095 36.279 42.6617 36.0524 43.3139C35.8258 43.9661 35.6412 44.6545 35.4133 45.1031C34.7559 46.3981 33.5 47.6851 31.7779 47.6851C31.6574 47.6838 31.5448 47.7481 31.4833 47.8552C31.423 47.9623 31.423 48.0936 31.4833 48.2007C31.5448 48.3079 31.6574 48.3721 31.7779 48.3708C33.8222 48.3708 35.2745 46.8749 36.0105 45.4245C36.2973 44.858 36.4702 44.1589 36.681 43.5496C36.8919 42.9403 37.1511 42.4541 37.4563 42.2854C37.603 42.2077 37.6724 42.0323 37.6213 41.8716C37.5689 41.7122 37.4091 41.6144 37.2467 41.6425ZM38.4097 41.7068C38.2708 41.7309 38.1622 41.8408 38.1373 41.9814C38.1111 42.1233 38.1739 42.2653 38.2944 42.3389C38.6257 42.5693 38.8183 43.176 38.8183 43.9567C38.8183 44.4737 38.6362 45.6897 38.1582 46.9459C37.6802 48.2021 36.9063 49.5091 35.78 50.3314C35.6268 50.4412 35.5888 50.6569 35.6962 50.8136C35.8036 50.9702 36.0144 51.0091 36.1676 50.8993C37.4484 49.9645 38.2682 48.5288 38.7763 47.1923C39.2845 45.8557 39.4888 44.625 39.4888 43.9567C39.4888 43.0688 39.3002 42.2144 38.6611 41.7711C38.5891 41.7162 38.4987 41.6934 38.4097 41.7068ZM37.7601 43.2282C37.603 43.2536 37.4851 43.3876 37.4772 43.5496C37.4772 43.5496 37.4052 44.6759 36.8277 46.0031C36.7609 46.1169 36.7648 46.2589 36.8355 46.3687C36.9076 46.4785 37.0346 46.5374 37.1629 46.5187C37.29 46.4999 37.3974 46.4075 37.4353 46.2816C38.0626 44.842 38.1477 43.5925 38.1477 43.5925C38.1556 43.488 38.1163 43.3849 38.0404 43.3139C37.9644 43.2429 37.8609 43.2121 37.7601 43.2282ZM34.1666 43.571C34.0671 43.5925 33.9819 43.6594 33.9361 43.7532C33.6126 44.3692 33.2564 44.933 32.7732 45.3281C32.29 45.7232 31.6797 45.9709 30.7617 45.9709C30.6412 45.9696 30.5286 46.0339 30.467 46.141C30.4068 46.2481 30.4068 46.3794 30.467 46.4865C30.5286 46.5937 30.6412 46.6579 30.7617 46.6566C31.8054 46.6566 32.5964 46.3499 33.1923 45.8638C33.7881 45.3776 34.1928 44.7335 34.5333 44.0853C34.5988 43.9715 34.5948 43.8295 34.5241 43.721C34.4521 43.6112 34.3251 43.5523 34.198 43.571C34.1876 43.571 34.1771 43.571 34.1666 43.571ZM40.7984 43.9032C40.7839 43.9058 40.7695 43.9099 40.7564 43.9139C40.6006 43.95 40.4906 44.0933 40.4945 44.2567C40.4945 47.8123 38.4725 50.4386 38.4725 50.4386C38.3573 50.5899 38.3822 50.8082 38.5301 50.926C38.6781 51.0439 38.8916 51.0185 39.0068 50.8671C39.0068 50.8671 41.165 48.0775 41.165 44.2567C41.169 44.1576 41.1297 44.0625 41.0603 43.9956C40.9896 43.9273 40.894 43.8938 40.7984 43.9032ZM36.4924 46.9244C36.3929 46.9378 36.3038 46.9968 36.2515 47.0852C35.6726 47.9838 34.8332 48.8328 33.5904 49.3886C33.4201 49.4623 33.3402 49.6645 33.4123 49.8386C33.4843 50.0127 33.6821 50.0944 33.8523 50.0207C35.2274 49.406 36.1703 48.4458 36.8067 47.4601C36.8814 47.349 36.8866 47.2043 36.8185 47.0892C36.7504 46.9727 36.6234 46.9084 36.4924 46.9244ZM41.9298 47.4601C41.7936 47.4842 41.6863 47.59 41.6574 47.728C41.3942 48.7458 41.1336 49.4529 41.1336 49.4529C41.0838 49.5694 41.1022 49.7047 41.1808 49.8038C41.258 49.9029 41.3824 49.9498 41.5055 49.9256C41.6273 49.9015 41.7255 49.8105 41.7622 49.6886C41.7622 49.6886 42.0359 48.9507 42.307 47.8994C42.3384 47.7909 42.3162 47.6744 42.2468 47.5874C42.1774 47.499 42.0713 47.4521 41.9613 47.4601C41.9508 47.4601 41.9403 47.4601 41.9298 47.4601Z" fill="#FF4C00"/>
</g>
<defs>
<clipPath id="clip0_6_5538">
<rect width="77.6003" height="97" fill="white"/>
</clipPath>
</defs>
</svg>
