<svg width="349" height="97" viewBox="0 0 349 97" fill="none" xmlns="http://www.w3.org/2000/svg">
<g clip-path="url(#clip0_6_5510)">
<path d="M39.2997 0C39.2997 0 19.9142 19.4 0.526346 19.4C0.526346 19.4 -1.89623 75.175 39.7192 97C80.4956 75.175 78.073 19.4 78.073 19.4C78.0706 19.4 78.0706 19.4 78.0681 19.4C56.2625 19.4 39.2997 0 39.2997 0Z" fill="#0B0C0E"/>
<path d="M68.0943 28.0403C55.6468 25.4164 45.406 18.447 39.0452 13.112C32.4977 18.299 22.1551 25.1521 10.5078 27.8948C11.6282 41.9064 16.7667 70.6693 39.6636 85.7262C61.9445 70.713 66.9885 42.115 68.0943 28.0403Z" fill="#FF4C00"/>
<path d="M39.0452 13.1096C32.4977 18.2966 22.1551 25.1497 10.5078 27.8924C10.6727 29.9463 10.9395 32.3422 11.3178 34.9394C22.628 32.0755 32.6481 25.448 39.0428 20.3846C45.2629 25.6032 55.2151 32.3592 67.294 35.1067C67.6675 32.5071 67.9294 30.104 68.0919 28.0379C55.6468 25.414 45.406 18.4446 39.0452 13.1096Z" fill="#DD4100"/>
<path d="M39.2998 4.85001C37.9605 4.85001 36.8748 5.93573 36.8748 7.27501C36.8748 8.61428 37.9605 9.70001 39.2998 9.70001C40.6391 9.70001 41.7248 8.61428 41.7248 7.27501C41.7248 5.93573 40.6391 4.85001 39.2998 4.85001ZM73.2498 21.825C71.9105 21.825 70.8248 22.9107 70.8248 24.25C70.8248 25.5893 71.9105 26.675 73.2498 26.675C74.5891 26.675 75.6748 25.5893 75.6748 24.25C75.6748 22.9107 74.5891 21.825 73.2498 21.825ZM39.2998 87.3C37.9605 87.3 36.8748 88.3857 36.8748 89.725C36.8748 91.0643 37.9605 92.15 39.2998 92.15C40.6391 92.15 41.7248 91.0643 41.7248 89.725C41.7248 88.3857 40.6391 87.3 39.2998 87.3ZM5.3498 21.825C4.01053 21.825 2.9248 22.9107 2.9248 24.25C2.9248 25.5893 4.01053 26.675 5.3498 26.675C6.68908 26.675 7.7748 25.5893 7.7748 24.25C7.7748 22.9107 6.68908 21.825 5.3498 21.825ZM12.6248 58.2C11.2855 58.2 10.1998 59.2857 10.1998 60.625C10.1998 61.9643 11.2855 63.05 12.6248 63.05C13.9641 63.05 15.0498 61.9643 15.0498 60.625C15.0498 59.2857 13.9641 58.2 12.6248 58.2ZM65.9748 58.2C64.6355 58.2 63.5498 59.2857 63.5498 60.625C63.5498 61.9643 64.6355 63.05 65.9748 63.05C67.3141 63.05 68.3998 61.9643 68.3998 60.625C68.3998 59.2857 67.3141 58.2 65.9748 58.2Z" fill="#FF4C00"/>
<path d="M42.6785 66.1166L38.5785 69.8749L34.4785 66.1166V52.1083H42.6785V57.2562L40.9702 58.2583V59.2833L42.6785 60.3083V61.3333L40.9702 62.3583V63.3833L42.6785 64.4083V66.1166Z" fill="#0B0C0E"/>
<path d="M37.8955 69.2487L36.5288 67.9958V53.8167H37.8955V69.2487Z" fill="#FF4C00" fill-opacity="0.76078"/>
<path d="M28.3286 43C28.3286 48.523 32.8056 53 38.3286 53C43.8516 53 48.3286 48.523 48.3286 43C48.3286 37.477 43.8516 33 38.3286 33C32.8056 33 28.3286 37.477 28.3286 43Z" fill="#0B0C0E"/>
<path d="M37.9772 35C36.9754 35 36.0993 35.2143 35.3476 35.5464C35.2245 35.5852 35.1341 35.6951 35.1158 35.825C35.0975 35.9562 35.1551 36.0861 35.2625 36.1598C35.3698 36.2321 35.5087 36.2361 35.62 36.1678C36.2918 35.8705 37.0658 35.6857 37.9772 35.6857C39.3183 35.6857 40.4196 35.9991 41.3403 36.4892C41.5053 36.5776 41.7096 36.5133 41.796 36.3446C41.8824 36.1758 41.8196 35.9669 41.6546 35.8785C40.6423 35.3402 39.4204 35 37.9772 35ZM34.3418 36.1357C34.2881 36.145 34.2384 36.1665 34.1951 36.1999C33.2549 36.8709 32.5647 37.7119 32.0579 38.4177C31.8051 38.7713 31.5995 39.09 31.4293 39.3391C31.2591 39.5882 31.1163 39.777 31.0731 39.8105C30.9605 39.8775 30.895 40.006 30.9081 40.1386C30.9199 40.2725 31.0063 40.3864 31.1294 40.4305C31.2525 40.4747 31.39 40.4426 31.4817 40.3462C31.6703 40.1962 31.7973 39.994 31.9741 39.7355C32.1509 39.477 32.3604 39.1636 32.6027 38.8248C33.0872 38.1485 33.7211 37.3758 34.5723 36.7678C34.702 36.6847 34.7596 36.5214 34.7124 36.3727C34.6653 36.2241 34.5265 36.1263 34.3733 36.1357C34.3628 36.1357 34.3523 36.1357 34.3418 36.1357ZM38.1972 36.7142C38.0126 36.741 37.8829 36.9164 37.9091 37.1053C37.9353 37.2941 38.1069 37.4267 38.2915 37.3999C41.6991 37.6035 43.1396 39.5426 43.7499 41.739C44.3602 43.9353 44.0393 46.4062 43.7499 47.3209C43.6923 47.5017 43.7879 47.6958 43.9647 47.7548C44.1415 47.8137 44.3314 47.7159 44.389 47.5351C44.7373 46.4356 45.0608 43.938 44.3995 41.5568C43.7381 39.1757 41.9872 36.9325 38.3335 36.7142C38.3086 36.7115 38.285 36.7115 38.2601 36.7142C38.2496 36.7142 38.2392 36.7142 38.2287 36.7142C38.2182 36.7142 38.2077 36.7142 38.1972 36.7142ZM42.7441 36.7356C42.6106 36.7611 42.5045 36.8669 42.477 37.0035C42.4495 37.1401 42.5058 37.2794 42.6184 37.357C45.2402 39.2078 45.6567 43.3996 45.6567 43.3996C45.6737 43.5884 45.8387 43.7277 46.0234 43.7103C46.208 43.6929 46.3442 43.5242 46.3272 43.3353C46.3272 43.3353 45.9684 38.8998 42.9956 36.7999C42.9236 36.745 42.8332 36.7222 42.7441 36.7356ZM36.9086 36.8428C36.9021 36.8454 36.8942 36.8495 36.8877 36.8535C34.571 37.3236 33.45 38.9547 32.5817 40.3355C32.4809 40.4948 32.5254 40.7091 32.6813 40.8122C32.8371 40.9154 33.0466 40.8698 33.1475 40.7105C34.0053 39.3444 34.9429 37.9383 37.0134 37.5177C37.1823 37.4749 37.2923 37.3075 37.2648 37.1307C37.2373 36.9553 37.0828 36.8294 36.9086 36.8428ZM38.3125 38.4284C37.147 38.4284 36.2564 38.8101 35.5676 39.3819C35.4222 39.4998 35.4 39.7167 35.5152 39.8641C35.6305 40.0127 35.8426 40.0355 35.9867 39.9176C36.5734 39.4315 37.2871 39.1141 38.3125 39.1141C38.6085 39.1141 38.8913 39.1395 39.1611 39.1891C39.2816 39.2159 39.406 39.173 39.4859 39.0779C39.5671 38.9815 39.5893 38.8489 39.5461 38.7324C39.5016 38.6146 39.3981 38.5302 39.2763 38.5141C38.9673 38.4579 38.6464 38.4284 38.3125 38.4284ZM40.4078 38.9212C40.3974 38.9239 40.3869 38.9279 40.3764 38.932C40.2376 38.9641 40.1328 39.082 40.1171 39.2266C40.1001 39.3712 40.1747 39.5105 40.3031 39.5748C41.7711 40.3408 42.6708 42.0095 42.6708 44.2567C42.6708 44.9236 42.5909 45.6308 42.4717 46.3031C42.4364 46.4892 42.5569 46.6687 42.7389 46.7048C42.9209 46.741 43.0964 46.6178 43.1318 46.4316C43.2562 45.7312 43.3413 44.9812 43.3413 44.2567C43.3413 41.8193 42.329 39.8627 40.6069 38.9641C40.5467 38.9293 40.4772 38.9146 40.4078 38.9212ZM38.3125 40.1426C37.439 40.1426 36.7606 40.4292 36.2486 40.8712C35.7365 41.3131 35.3869 41.8916 35.0752 42.4889C34.9888 42.6577 35.0516 42.8666 35.2166 42.955C35.3816 43.0434 35.5859 42.9791 35.6724 42.8104C35.9683 42.2412 36.2748 41.7443 36.6781 41.3961C37.0815 41.0479 37.5739 40.8283 38.3125 40.8283C39.0092 40.8283 39.5173 41.052 39.9154 41.4068C40.3135 41.7617 40.599 42.2586 40.7745 42.8104C40.8046 42.9336 40.8989 43.0313 41.0194 43.0608C41.1412 43.0916 41.2682 43.0514 41.3507 42.9563C41.4332 42.8599 41.4581 42.726 41.4136 42.6068C41.2093 41.9653 40.8688 41.3506 40.3555 40.8926C39.8421 40.4346 39.1546 40.1426 38.3125 40.1426ZM34.7818 40.3355C34.6915 40.3529 34.6116 40.4064 34.5618 40.4855C33.8926 41.4109 33.4094 42.438 32.8541 43.1746C32.2989 43.9112 31.7488 44.3491 30.7693 44.2567C30.5846 44.2393 30.4196 44.3786 30.4026 44.5674C30.3856 44.7562 30.5218 44.925 30.7064 44.9424C31.9217 45.0562 32.7664 44.4188 33.3884 43.5925C34.0105 42.7662 34.4806 41.7443 35.0961 40.8926C35.176 40.7908 35.1917 40.6529 35.1394 40.535C35.0857 40.4172 34.9717 40.3395 34.8447 40.3355C34.8342 40.3355 34.8237 40.3355 34.8133 40.3355C34.8028 40.3355 34.7923 40.3355 34.7818 40.3355ZM32.1208 41.2997C32.1024 41.3024 32.0854 41.3051 32.0684 41.3104C31.9833 41.3278 31.9086 41.3774 31.8588 41.4497C31.466 41.9974 31.0757 42.3939 30.5912 42.5639C30.4654 42.5921 30.3659 42.6925 30.3371 42.8224C30.3083 42.951 30.3541 43.0849 30.455 43.1666C30.5571 43.2496 30.6946 43.2644 30.8112 43.2068C31.4882 42.9684 31.9754 42.4528 32.4036 41.8568C32.4874 41.751 32.5018 41.6051 32.4403 41.4845C32.3788 41.3627 32.253 41.2903 32.1208 41.2997ZM37.7467 41.6425C37.7062 41.6492 37.6669 41.664 37.6315 41.6854C37.0474 42.0095 36.779 42.6617 36.5524 43.3139C36.3258 43.9661 36.1412 44.6545 35.9133 45.1031C35.2559 46.3981 34 47.6851 32.2779 47.6851C32.1574 47.6838 32.0448 47.7481 31.9833 47.8552C31.923 47.9623 31.923 48.0936 31.9833 48.2007C32.0448 48.3079 32.1574 48.3721 32.2779 48.3708C34.3222 48.3708 35.7745 46.8749 36.5105 45.4245C36.7973 44.858 36.9702 44.1589 37.181 43.5496C37.3919 42.9403 37.6511 42.4541 37.9563 42.2854C38.103 42.2077 38.1724 42.0323 38.1213 41.8716C38.0689 41.7122 37.9091 41.6144 37.7467 41.6425ZM38.9097 41.7068C38.7708 41.7309 38.6622 41.8408 38.6373 41.9814C38.6111 42.1233 38.6739 42.2653 38.7944 42.3389C39.1257 42.5693 39.3183 43.176 39.3183 43.9567C39.3183 44.4737 39.1362 45.6897 38.6582 46.9459C38.1802 48.2021 37.4063 49.5091 36.28 50.3314C36.1268 50.4412 36.0888 50.6569 36.1962 50.8136C36.3036 50.9702 36.5144 51.0091 36.6676 50.8993C37.9484 49.9645 38.7682 48.5288 39.2763 47.1923C39.7845 45.8557 39.9888 44.625 39.9888 43.9567C39.9888 43.0688 39.8002 42.2144 39.1611 41.7711C39.0891 41.7162 38.9987 41.6934 38.9097 41.7068ZM38.2601 43.2282C38.103 43.2536 37.9851 43.3876 37.9772 43.5496C37.9772 43.5496 37.9052 44.6759 37.3277 46.0031C37.2609 46.1169 37.2648 46.2589 37.3355 46.3687C37.4076 46.4785 37.5346 46.5374 37.6629 46.5187C37.79 46.4999 37.8974 46.4075 37.9353 46.2816C38.5626 44.842 38.6477 43.5925 38.6477 43.5925C38.6556 43.488 38.6163 43.3849 38.5404 43.3139C38.4644 43.2429 38.3609 43.2121 38.2601 43.2282ZM34.6666 43.571C34.5671 43.5925 34.4819 43.6594 34.4361 43.7532C34.1126 44.3692 33.7564 44.933 33.2732 45.3281C32.79 45.7232 32.1797 45.9709 31.2617 45.9709C31.1412 45.9696 31.0286 46.0339 30.967 46.141C30.9068 46.2481 30.9068 46.3794 30.967 46.4865C31.0286 46.5937 31.1412 46.6579 31.2617 46.6566C32.3054 46.6566 33.0964 46.3499 33.6923 45.8638C34.2881 45.3776 34.6928 44.7335 35.0333 44.0853C35.0988 43.9715 35.0948 43.8295 35.0241 43.721C34.9521 43.6112 34.8251 43.5523 34.698 43.571C34.6876 43.571 34.6771 43.571 34.6666 43.571ZM41.2984 43.9032C41.2839 43.9058 41.2695 43.9099 41.2564 43.9139C41.1006 43.95 40.9906 44.0933 40.9945 44.2567C40.9945 47.8123 38.9725 50.4386 38.9725 50.4386C38.8573 50.5899 38.8822 50.8082 39.0301 50.926C39.1781 51.0439 39.3916 51.0185 39.5068 50.8671C39.5068 50.8671 41.665 48.0775 41.665 44.2567C41.669 44.1576 41.6297 44.0625 41.5603 43.9956C41.4896 43.9273 41.394 43.8938 41.2984 43.9032ZM36.9924 46.9244C36.8929 46.9378 36.8038 46.9968 36.7515 47.0852C36.1726 47.9838 35.3332 48.8328 34.0904 49.3886C33.9201 49.4623 33.8402 49.6645 33.9123 49.8386C33.9843 50.0127 34.1821 50.0944 34.3523 50.0207C35.7274 49.406 36.6703 48.4458 37.3067 47.4601C37.3814 47.349 37.3866 47.2043 37.3185 47.0892C37.2504 46.9727 37.1234 46.9084 36.9924 46.9244ZM42.4298 47.4601C42.2936 47.4842 42.1863 47.59 42.1574 47.728C41.8942 48.7458 41.6336 49.4529 41.6336 49.4529C41.5838 49.5694 41.6022 49.7047 41.6808 49.8038C41.758 49.9029 41.8824 49.9498 42.0055 49.9256C42.1273 49.9015 42.2255 49.8105 42.2622 49.6886C42.2622 49.6886 42.5359 48.9507 42.807 47.8994C42.8384 47.7909 42.8162 47.6744 42.7468 47.5874C42.6774 47.499 42.5713 47.4521 42.4613 47.4601C42.4508 47.4601 42.4403 47.4601 42.4298 47.4601Z" fill="#FF4C00"/>
</g>
<path d="M113.471 65.2031C110.635 65.2031 107.881 64.9688 105.209 64.5C102.538 64.0078 100.147 63.3281 98.0376 62.4609L99.3032 52.9688C101.881 54.0469 104.436 54.8789 106.967 55.4648C109.522 56.0508 111.877 56.3438 114.034 56.3438C116.542 56.3438 118.463 55.8984 119.799 55.0078C121.135 54.1172 121.803 52.8398 121.803 51.1758C121.803 48.9961 120.432 47.2617 117.69 45.9727L110.518 42.4922C106.979 40.7578 104.237 38.6133 102.292 36.0586C100.346 33.5039 99.3735 30.6797 99.3735 27.5859C99.3735 23.2266 100.815 19.8516 103.698 17.4609C106.581 15.0703 110.659 13.875 115.932 13.875C119.002 13.875 121.909 14.4141 124.651 15.4922C127.417 16.5703 129.866 18.1289 131.999 20.168L125.6 27.5156C123.983 25.9688 122.354 24.7852 120.713 23.9648C119.073 23.1211 117.491 22.6992 115.967 22.6992C113.905 22.6992 112.299 23.1445 111.151 24.0352C110.002 24.9023 109.428 26.168 109.428 27.832C109.428 28.9336 109.827 29.9766 110.624 30.9609C111.444 31.9453 112.604 32.8359 114.104 33.6328L120.854 37.1133C124.37 38.9414 127.077 41.0742 128.975 43.5117C130.897 45.9492 131.858 48.5625 131.858 51.3516C131.858 55.7812 130.264 59.2031 127.077 61.6172C123.889 64.0078 119.354 65.2031 113.471 65.2031ZM163.639 64.5V42C163.639 39.9141 163.17 38.3086 162.233 37.1836C161.319 36.0586 160.006 35.4961 158.295 35.4961C153.514 35.4961 151.124 38.7656 151.124 45.3047L148.944 33.9844H152.038C152.389 31.4766 153.245 29.6133 154.604 28.3945C155.963 27.1523 158.026 26.5312 160.792 26.5312C164.729 26.5312 167.776 27.7266 169.932 30.1172C172.088 32.5078 173.167 35.8828 173.167 40.2422V64.5H163.639ZM141.596 64.5V11.7656H151.124V64.5H141.596ZM197.284 64.5V29.3438H206.776V64.5H197.284ZM183.502 64.5V55.7109H197.987V64.5H183.502ZM206.073 64.5V55.7109H217.815V64.5H206.073ZM185.612 36.0234V27.2344H206.776V36.0234H185.612ZM201.608 22.207C199.803 22.207 198.338 21.6445 197.213 20.5195C196.088 19.3945 195.526 17.9297 195.526 16.125C195.526 14.3203 196.088 12.8555 197.213 11.7305C198.338 10.6055 199.803 10.043 201.608 10.043C203.413 10.043 204.877 10.6055 206.002 11.7305C207.127 12.8555 207.69 14.3203 207.69 16.125C207.69 17.9297 207.127 19.3945 206.002 20.5195C204.877 21.6445 203.413 22.207 201.608 22.207ZM244.709 65.2031C238.264 65.2031 233.284 63.5391 229.768 60.2109C226.252 56.8594 224.495 52.0547 224.495 45.7969C224.495 39.7031 225.983 34.9688 228.959 31.5938C231.959 28.2188 236.178 26.5312 241.616 26.5312C246.936 26.5312 251.049 28.0898 253.956 31.207C256.862 34.3242 258.315 38.8594 258.315 44.8125C258.315 46.5 258.245 48.1055 258.104 49.6289H230.752V43.0195H248.963C248.963 40.5117 248.319 38.5898 247.03 37.2539C245.764 35.918 243.983 35.25 241.686 35.25C239.202 35.25 237.268 36.1406 235.885 37.9219C234.526 39.6797 233.846 42.1875 233.846 45.4453C233.846 48.9609 234.854 51.6328 236.87 53.4609C238.909 55.2891 241.803 56.2031 245.553 56.2031C247.241 56.2031 248.905 56.1211 250.545 55.957C252.186 55.7695 253.862 55.5234 255.573 55.2188L256.487 64.2188C254.096 64.6406 251.917 64.9102 249.948 65.0273C247.979 65.1445 246.233 65.2031 244.709 65.2031ZM289.499 65.2031C284.811 65.2031 281.424 63.9141 279.338 61.3359C277.276 58.7578 276.245 54.6328 276.245 48.9609V11.7656H285.737V48.6094C285.737 50.1562 285.901 51.4219 286.229 52.4062C286.557 53.3906 287.19 54.1172 288.127 54.5859C289.065 55.0547 290.459 55.2891 292.311 55.2891C294.374 55.2891 296.975 54.8438 300.116 53.9531L301.206 63.7266C299.213 64.2422 297.292 64.6172 295.44 64.8516C293.588 65.0859 291.608 65.2031 289.499 65.2031ZM265.698 20.5195V11.7656H276.877V20.5195H265.698ZM322.44 65.2031C317.823 65.2031 314.225 63.5391 311.647 60.2109C309.092 56.8828 307.815 52.1133 307.815 45.9023C307.815 39.7383 309.092 34.9688 311.647 31.5938C314.225 28.2188 317.846 26.5312 322.51 26.5312C325.229 26.5312 327.292 27.1523 328.698 28.3945C330.127 29.6133 331.053 31.4766 331.475 33.9844H334.569L332.389 45.9023C332.389 42.293 331.78 39.6562 330.561 37.9922C329.366 36.3281 327.549 35.4961 325.112 35.4961C322.698 35.4961 320.834 36.4102 319.522 38.2383C318.209 40.043 317.553 42.5977 317.553 45.9023C317.553 49.3242 318.186 51.9023 319.452 53.6367C320.741 55.3711 322.627 56.2383 325.112 56.2383C327.831 56.2383 329.717 55.418 330.772 53.7773C331.85 52.1367 332.389 49.5117 332.389 45.9023L334.92 57.75H331.616C331.241 60.2344 330.268 62.0977 328.698 63.3398C327.127 64.582 325.042 65.2031 322.44 65.2031ZM333.76 64.8516L332.389 57.4688V11.7656H341.917V64.5L333.76 64.8516Z" fill="#0B0C0E"/>
<path d="M101.288 79.0625V77.5781H103.116C103.97 77.5781 104.616 77.3672 105.053 76.9453C105.491 76.5182 105.709 75.8958 105.709 75.0781C105.709 74.3594 105.491 73.8151 105.053 73.4453C104.616 73.0755 103.97 72.8906 103.116 72.8906H101.319V71.4062H103.116C104.506 71.4062 105.558 71.7161 106.272 72.3359C106.991 72.9557 107.35 73.8698 107.35 75.0781C107.35 76.3854 106.991 77.3776 106.272 78.0547C105.558 78.7266 104.506 79.0625 103.116 79.0625H101.288ZM99.8501 82.5V71.4062H101.475V82.5H99.8501ZM114.663 82.6562C113.517 82.6562 112.626 82.2812 111.991 81.5312C111.355 80.7812 111.038 79.724 111.038 78.3594C111.038 76.9896 111.355 75.9323 111.991 75.1875C112.626 74.4375 113.517 74.0625 114.663 74.0625C115.814 74.0625 116.704 74.4375 117.334 75.1875C117.97 75.9323 118.288 76.9896 118.288 78.3594C118.288 79.724 117.97 80.7812 117.334 81.5312C116.704 82.2812 115.814 82.6562 114.663 82.6562ZM114.663 81.1719C115.272 81.1719 115.741 80.9271 116.069 80.4375C116.402 79.9479 116.569 79.2552 116.569 78.3594C116.569 77.4583 116.402 76.7656 116.069 76.2812C115.741 75.7917 115.272 75.5469 114.663 75.5469C114.053 75.5469 113.582 75.7917 113.249 76.2812C112.92 76.7656 112.756 77.4583 112.756 78.3594C112.756 79.2552 112.92 79.9479 113.249 80.4375C113.582 80.9271 114.053 81.1719 114.663 81.1719ZM126.975 82.5L126.006 75.9219H125.881L125.202 74.2188H126.717L127.694 81.25H127.834L128.538 74.2188H130.178L129.006 82.5H126.975ZM122.834 82.5L121.897 74.2188H123.459L124.084 81.25H124.225L125.202 74.2188H126.717L126.022 75.9219H125.913L124.944 82.5H122.834ZM138.131 82.6562C136.72 82.6562 135.629 82.2865 134.858 81.5469C134.092 80.8021 133.709 79.7344 133.709 78.3438C133.709 76.9896 134.035 75.9375 134.686 75.1875C135.337 74.4375 136.256 74.0625 137.444 74.0625C138.564 74.0625 139.428 74.401 140.038 75.0781C140.652 75.7552 140.959 76.7396 140.959 78.0312C140.959 78.4115 140.944 78.7656 140.913 79.0938H135.1V77.8281H139.459C139.459 77.0833 139.282 76.513 138.928 76.1172C138.574 75.7161 138.084 75.5156 137.459 75.5156C136.756 75.5156 136.209 75.7552 135.819 76.2344C135.433 76.7135 135.241 77.3906 135.241 78.2656C135.241 79.224 135.506 79.9531 136.038 80.4531C136.574 80.9531 137.334 81.2031 138.319 81.2031C138.663 81.2031 139.001 81.1849 139.334 81.1484C139.668 81.1068 140.006 81.0521 140.35 80.9844L140.553 82.4375C140.064 82.5312 139.616 82.5911 139.209 82.6172C138.803 82.6432 138.444 82.6562 138.131 82.6562ZM148.225 78.9375L147.741 76.3438H148.381C148.475 74.8229 149.236 74.0625 150.663 74.0625C151.517 74.0625 152.137 74.3073 152.522 74.7969C152.907 75.2865 153.1 76.0781 153.1 77.1719H151.459C151.459 76.5677 151.368 76.1328 151.186 75.8672C151.009 75.6016 150.72 75.4688 150.319 75.4688C149.616 75.4688 149.09 75.7708 148.741 76.375C148.397 76.974 148.225 77.8281 148.225 78.9375ZM144.725 82.5V81.0469H150.256V82.5H144.725ZM146.569 82.5V74.2188H147.913L148.225 76.5938V82.5H146.569ZM145.038 75.6719V74.2188H147.803L147.959 75.6719H145.038ZM159.881 82.5V74.6875H161.538V82.5H159.881ZM156.725 82.5V81.0469H160.038V82.5H156.725ZM161.381 82.5V81.0469H164.084V82.5H161.381ZM157.194 75.6719V74.2188H161.538V75.6719H157.194ZM160.655 72.9062C160.337 72.9062 160.064 72.7943 159.834 72.5703C159.611 72.3411 159.499 72.0677 159.499 71.75C159.499 71.4271 159.611 71.1536 159.834 70.9297C160.064 70.7057 160.337 70.5938 160.655 70.5938C160.978 70.5938 161.251 70.7057 161.475 70.9297C161.699 71.1536 161.811 71.4271 161.811 71.75C161.811 72.0677 161.699 72.3411 161.475 72.5703C161.251 72.7943 160.978 72.9062 160.655 72.9062ZM173.256 82.5V77.1094C173.256 76.6094 173.126 76.224 172.866 75.9531C172.605 75.6823 172.241 75.5469 171.772 75.5469C170.47 75.5469 169.819 76.3125 169.819 77.8438L169.334 75.7188H169.975C170.022 75.1615 170.225 74.7474 170.584 74.4766C170.944 74.2005 171.47 74.0625 172.163 74.0625C173.038 74.0625 173.715 74.3281 174.194 74.8594C174.673 75.3906 174.913 76.1406 174.913 77.1094V82.5H173.256ZM168.163 82.5V74.2188H169.663L169.819 75.9688V82.5H168.163ZM179.647 86.2344L179.569 84.7188L182.225 84.6406C183.064 84.6146 183.673 84.3828 184.053 83.9453C184.433 83.5078 184.626 82.8646 184.631 82.0156V75.9688L184.788 74.2188H186.288V81.7656C186.288 83.2396 185.952 84.3281 185.28 85.0312C184.608 85.7344 183.538 86.1094 182.069 86.1562L179.647 86.2344ZM182.28 82.6562C181.196 82.6562 180.374 82.2995 179.811 81.5859C179.254 80.8724 178.975 79.8229 178.975 78.4375C178.975 77 179.254 75.9115 179.811 75.1719C180.374 74.4323 181.196 74.0625 182.28 74.0625C182.926 74.0625 183.449 74.2083 183.85 74.5C184.251 74.7917 184.486 75.1979 184.553 75.7188H185.194L184.631 78.0781C184.631 77.224 184.462 76.5755 184.124 76.1328C183.79 75.6901 183.298 75.4688 182.647 75.4688C181.98 75.4688 181.475 75.7188 181.131 76.2188C180.788 76.7188 180.616 77.4583 180.616 78.4375C180.616 79.3646 180.788 80.0651 181.131 80.5391C181.475 81.013 181.98 81.25 182.647 81.25C183.298 81.25 183.79 81.0286 184.124 80.5859C184.462 80.1432 184.631 79.4948 184.631 78.6406L185.194 81H184.475C184.423 81.5208 184.202 81.9271 183.811 82.2188C183.426 82.5104 182.915 82.6562 182.28 82.6562ZM203.28 82.6562C202.65 82.6562 202.058 82.6042 201.506 82.5C200.959 82.401 200.452 82.25 199.983 82.0469L200.186 80.4688C200.759 80.7135 201.311 80.901 201.842 81.0312C202.379 81.1562 202.9 81.2188 203.405 81.2188C204.134 81.2188 204.676 81.0911 205.03 80.8359C205.384 80.5807 205.561 80.1927 205.561 79.6719C205.561 79.0104 205.222 78.526 204.545 78.2188L202.624 77.3438C201.868 77 201.288 76.5859 200.881 76.1016C200.48 75.6172 200.28 75.0156 200.28 74.2969C200.28 73.3281 200.571 72.5781 201.155 72.0469C201.738 71.5156 202.564 71.25 203.631 71.25C204.376 71.25 205.035 71.3594 205.608 71.5781C206.181 71.7969 206.733 72.1536 207.264 72.6484L206.17 73.7578C205.712 73.3828 205.282 73.112 204.881 72.9453C204.486 72.7734 204.071 72.6875 203.639 72.6875C203.103 72.6875 202.686 72.8177 202.389 73.0781C202.097 73.3333 201.952 73.7135 201.952 74.2188C201.952 74.5781 202.048 74.8724 202.241 75.1016C202.433 75.3255 202.717 75.526 203.092 75.7031L204.717 76.4688C205.54 76.8542 206.165 77.2891 206.592 77.7734C207.019 78.2578 207.233 78.8802 207.233 79.6406C207.233 80.6458 206.905 81.401 206.249 81.9062C205.597 82.4062 204.608 82.6562 203.28 82.6562ZM215.756 82.6562C214.345 82.6562 213.254 82.2865 212.483 81.5469C211.717 80.8021 211.334 79.7344 211.334 78.3438C211.334 76.9896 211.66 75.9375 212.311 75.1875C212.962 74.4375 213.881 74.0625 215.069 74.0625C216.189 74.0625 217.053 74.401 217.663 75.0781C218.277 75.7552 218.584 76.7396 218.584 78.0312C218.584 78.4115 218.569 78.7656 218.538 79.0938H212.725V77.8281H217.084C217.084 77.0833 216.907 76.513 216.553 76.1172C216.199 75.7161 215.709 75.5156 215.084 75.5156C214.381 75.5156 213.834 75.7552 213.444 76.2344C213.058 76.7135 212.866 77.3906 212.866 78.2656C212.866 79.224 213.131 79.9531 213.663 80.4531C214.199 80.9531 214.959 81.2031 215.944 81.2031C216.288 81.2031 216.626 81.1849 216.959 81.1484C217.293 81.1068 217.631 81.0521 217.975 80.9844L218.178 82.4375C217.689 82.5312 217.241 82.5911 216.834 82.6172C216.428 82.6432 216.069 82.6562 215.756 82.6562ZM227.209 82.6562C225.798 82.6562 224.707 82.2865 223.936 81.5469C223.17 80.8021 222.788 79.7344 222.788 78.3438C222.788 76.9896 223.15 75.9375 223.874 75.1875C224.603 74.4375 225.642 74.0625 226.991 74.0625C227.798 74.0625 228.488 74.2135 229.061 74.5156C229.639 74.8125 230.051 75.2344 230.295 75.7812L229.022 76.7422C228.788 76.362 228.488 76.0677 228.124 75.8594C227.759 75.651 227.361 75.5469 226.928 75.5469C226.147 75.5469 225.54 75.7839 225.108 76.2578C224.676 76.7266 224.459 77.3958 224.459 78.2656C224.459 79.2083 224.712 79.9297 225.217 80.4297C225.728 80.9245 226.454 81.1719 227.397 81.1719C227.782 81.1719 228.168 81.1536 228.553 81.1172C228.939 81.0807 229.314 81.0312 229.678 80.9688L229.866 82.4219C229.439 82.5156 228.996 82.5781 228.538 82.6094C228.084 82.6406 227.642 82.6562 227.209 82.6562ZM236.975 82.6562C236.105 82.6562 235.431 82.3984 234.952 81.8828C234.478 81.362 234.241 80.6302 234.241 79.6875V74.2188H235.897V79.6875C235.897 80.1615 236.032 80.5286 236.303 80.7891C236.574 81.0443 236.954 81.1719 237.444 81.1719C238.048 81.1719 238.504 80.9818 238.811 80.6016C239.118 80.2161 239.272 79.5729 239.272 78.6719L239.694 80.9062H239.147C239.017 81.4688 238.762 81.901 238.381 82.2031C238.001 82.5052 237.532 82.6562 236.975 82.6562ZM239.413 82.5781L239.272 80.5938V79.1406H240.928V81L242.069 81.1719V82.5L239.413 82.5781ZM239.272 80.1562V74.2188H240.928V79.6875L239.272 80.1562ZM248.6 78.9375L248.116 76.3438H248.756C248.85 74.8229 249.611 74.0625 251.038 74.0625C251.892 74.0625 252.512 74.3073 252.897 74.7969C253.282 75.2865 253.475 76.0781 253.475 77.1719H251.834C251.834 76.5677 251.743 76.1328 251.561 75.8672C251.384 75.6016 251.095 75.4688 250.694 75.4688C249.991 75.4688 249.465 75.7708 249.116 76.375C248.772 76.974 248.6 77.8281 248.6 78.9375ZM245.1 82.5V81.0469H250.631V82.5H245.1ZM246.944 82.5V74.2188H248.288L248.6 76.5938V82.5H246.944ZM245.413 75.6719V74.2188H248.178L248.334 75.6719H245.413ZM261.256 82.6562C259.845 82.6562 258.754 82.2865 257.983 81.5469C257.217 80.8021 256.834 79.7344 256.834 78.3438C256.834 76.9896 257.16 75.9375 257.811 75.1875C258.462 74.4375 259.381 74.0625 260.569 74.0625C261.689 74.0625 262.553 74.401 263.163 75.0781C263.777 75.7552 264.084 76.7396 264.084 78.0312C264.084 78.4115 264.069 78.7656 264.038 79.0938H258.225V77.8281H262.584C262.584 77.0833 262.407 76.513 262.053 76.1172C261.699 75.7161 261.209 75.5156 260.584 75.5156C259.881 75.5156 259.334 75.7552 258.944 76.2344C258.558 76.7135 258.366 77.3906 258.366 78.2656C258.366 79.224 258.631 79.9531 259.163 80.4531C259.699 80.9531 260.459 81.2031 261.444 81.2031C261.788 81.2031 262.126 81.1849 262.459 81.1484C262.793 81.1068 263.131 81.0521 263.475 80.9844L263.678 82.4375C263.189 82.5312 262.741 82.5911 262.334 82.6172C261.928 82.6432 261.569 82.6562 261.256 82.6562ZM276.952 82.5L280.155 71.4062H282.42L285.624 82.5H283.983L281.358 72.75H281.217L278.592 82.5H276.952ZM278.436 79.7969V78.3125H284.061V79.7969H278.436ZM293.459 82.6562C292.048 82.6562 290.957 82.2865 290.186 81.5469C289.42 80.8021 289.038 79.7344 289.038 78.3438C289.038 76.9896 289.4 75.9375 290.124 75.1875C290.853 74.4375 291.892 74.0625 293.241 74.0625C294.048 74.0625 294.738 74.2135 295.311 74.5156C295.889 74.8125 296.301 75.2344 296.545 75.7812L295.272 76.7422C295.038 76.362 294.738 76.0677 294.374 75.8594C294.009 75.651 293.611 75.5469 293.178 75.5469C292.397 75.5469 291.79 75.7839 291.358 76.2578C290.926 76.7266 290.709 77.3958 290.709 78.2656C290.709 79.2083 290.962 79.9297 291.467 80.4297C291.978 80.9245 292.704 81.1719 293.647 81.1719C294.032 81.1719 294.418 81.1536 294.803 81.1172C295.189 81.0807 295.564 81.0312 295.928 80.9688L296.116 82.4219C295.689 82.5156 295.246 82.5781 294.788 82.6094C294.334 82.6406 293.892 82.6562 293.459 82.6562ZM304.834 82.6562C303.423 82.6562 302.332 82.2865 301.561 81.5469C300.795 80.8021 300.413 79.7344 300.413 78.3438C300.413 76.9896 300.775 75.9375 301.499 75.1875C302.228 74.4375 303.267 74.0625 304.616 74.0625C305.423 74.0625 306.113 74.2135 306.686 74.5156C307.264 74.8125 307.676 75.2344 307.92 75.7812L306.647 76.7422C306.413 76.362 306.113 76.0677 305.749 75.8594C305.384 75.651 304.986 75.5469 304.553 75.5469C303.772 75.5469 303.165 75.7839 302.733 76.2578C302.301 76.7266 302.084 77.3958 302.084 78.2656C302.084 79.2083 302.337 79.9297 302.842 80.4297C303.353 80.9245 304.079 81.1719 305.022 81.1719C305.407 81.1719 305.793 81.1536 306.178 81.1172C306.564 81.0807 306.939 81.0312 307.303 80.9688L307.491 82.4219C307.064 82.5156 306.621 82.5781 306.163 82.6094C305.709 82.6406 305.267 82.6562 304.834 82.6562ZM316.131 82.6562C314.72 82.6562 313.629 82.2865 312.858 81.5469C312.092 80.8021 311.709 79.7344 311.709 78.3438C311.709 76.9896 312.035 75.9375 312.686 75.1875C313.337 74.4375 314.256 74.0625 315.444 74.0625C316.564 74.0625 317.428 74.401 318.038 75.0781C318.652 75.7552 318.959 76.7396 318.959 78.0312C318.959 78.4115 318.944 78.7656 318.913 79.0938H313.1V77.8281H317.459C317.459 77.0833 317.282 76.513 316.928 76.1172C316.574 75.7161 316.084 75.5156 315.459 75.5156C314.756 75.5156 314.209 75.7552 313.819 76.2344C313.433 76.7135 313.241 77.3906 313.241 78.2656C313.241 79.224 313.506 79.9531 314.038 80.4531C314.574 80.9531 315.334 81.2031 316.319 81.2031C316.663 81.2031 317.001 81.1849 317.334 81.1484C317.668 81.1068 318.006 81.0521 318.35 80.9844L318.553 82.4375C318.064 82.5312 317.616 82.5911 317.209 82.6172C316.803 82.6432 316.444 82.6562 316.131 82.6562ZM326.147 82.6562C325.522 82.6562 324.986 82.638 324.538 82.6016C324.095 82.5651 323.689 82.5052 323.319 82.4219L323.506 80.9219C324.053 81.0052 324.535 81.0677 324.952 81.1094C325.374 81.151 325.772 81.1719 326.147 81.1719C326.986 81.1719 327.592 81.0911 327.967 80.9297C328.347 80.763 328.538 80.5 328.538 80.1406C328.538 79.8906 328.47 79.7057 328.334 79.5859C328.204 79.4609 328.001 79.3646 327.725 79.2969L325.819 78.8125C325.001 78.6042 324.4 78.3464 324.014 78.0391C323.634 77.7318 323.444 77.2656 323.444 76.6406C323.444 75.7344 323.79 75.0781 324.483 74.6719C325.181 74.2656 326.303 74.0625 327.85 74.0625C328.251 74.0625 328.624 74.0755 328.967 74.1016C329.316 74.1224 329.673 74.1615 330.038 74.2188L329.866 75.6562C329.444 75.6146 329.071 75.5859 328.749 75.5703C328.426 75.5547 328.111 75.5469 327.803 75.5469C326.876 75.5469 326.204 75.6276 325.788 75.7891C325.371 75.9453 325.163 76.2031 325.163 76.5625C325.163 76.8021 325.249 76.9766 325.42 77.0859C325.592 77.1901 325.855 77.2865 326.209 77.375L327.741 77.75C328.611 77.9583 329.246 78.237 329.647 78.5859C330.053 78.9349 330.256 79.4427 330.256 80.1094C330.256 81 329.931 81.6484 329.28 82.0547C328.629 82.4557 327.584 82.6562 326.147 82.6562ZM337.522 82.6562C336.897 82.6562 336.361 82.638 335.913 82.6016C335.47 82.5651 335.064 82.5052 334.694 82.4219L334.881 80.9219C335.428 81.0052 335.91 81.0677 336.327 81.1094C336.749 81.151 337.147 81.1719 337.522 81.1719C338.361 81.1719 338.967 81.0911 339.342 80.9297C339.722 80.763 339.913 80.5 339.913 80.1406C339.913 79.8906 339.845 79.7057 339.709 79.5859C339.579 79.4609 339.376 79.3646 339.1 79.2969L337.194 78.8125C336.376 78.6042 335.775 78.3464 335.389 78.0391C335.009 77.7318 334.819 77.2656 334.819 76.6406C334.819 75.7344 335.165 75.0781 335.858 74.6719C336.556 74.2656 337.678 74.0625 339.225 74.0625C339.626 74.0625 339.999 74.0755 340.342 74.1016C340.691 74.1224 341.048 74.1615 341.413 74.2188L341.241 75.6562C340.819 75.6146 340.446 75.5859 340.124 75.5703C339.801 75.5547 339.486 75.5469 339.178 75.5469C338.251 75.5469 337.579 75.6276 337.163 75.7891C336.746 75.9453 336.538 76.2031 336.538 76.5625C336.538 76.8021 336.624 76.9766 336.795 77.0859C336.967 77.1901 337.23 77.2865 337.584 77.375L339.116 77.75C339.986 77.9583 340.621 78.237 341.022 78.5859C341.428 78.9349 341.631 79.4427 341.631 80.1094C341.631 81 341.306 81.6484 340.655 82.0547C340.004 82.4557 338.959 82.6562 337.522 82.6562Z" fill="#0B0C0E" fill-opacity="0.7"/>
<defs>
<clipPath id="clip0_6_5510">
<rect width="77.6003" height="97" fill="white" transform="translate(0.5)"/>
</clipPath>
</defs>
</svg>
